<mxfile host="app.diagrams.net" modified="2023-10-11T03:17:12.422Z" agent="Mozilla/5.0 (Macintosh; Intel Mac OS X 10_15_7) AppleWebKit/537.36 (KHTML, like Gecko) Chrome/117.0.0.0 Safari/537.36" etag="m545CriBODHdU5YiYdBg" version="22.0.4" type="device" pages="2">
  <diagram name="modelagem_conceitual" id="gfVvIHNtHN39lHgDZNYv">
    <mxGraphModel dx="1195" dy="664" grid="1" gridSize="10" guides="1" tooltips="1" connect="1" arrows="1" fold="1" page="1" pageScale="1" pageWidth="827" pageHeight="1169" math="0" shadow="0">
      <root>
        <mxCell id="0" />
        <mxCell id="1" parent="0" />
        <mxCell id="LTQi-4VdJKLaQ-HWII3O-1" value="Employees" style="swimlane;childLayout=stackLayout;horizontal=1;startSize=50;horizontalStack=0;rounded=1;fontSize=14;fontStyle=0;strokeWidth=2;resizeParent=0;resizeLast=1;shadow=0;dashed=0;align=center;arcSize=4;whiteSpace=wrap;html=1;" vertex="1" parent="1">
          <mxGeometry x="30" y="20" width="160" height="120" as="geometry" />
        </mxCell>
        <mxCell id="LTQi-4VdJKLaQ-HWII3O-2" value="cod_employee&lt;br&gt;full_name&lt;br&gt;hire_date&lt;br&gt;office" style="align=left;strokeColor=none;fillColor=none;spacingLeft=4;fontSize=12;verticalAlign=top;resizable=0;rotatable=0;part=1;html=1;" vertex="1" parent="LTQi-4VdJKLaQ-HWII3O-1">
          <mxGeometry y="50" width="160" height="70" as="geometry" />
        </mxCell>
        <mxCell id="LTQi-4VdJKLaQ-HWII3O-12" value="" style="edgeStyle=orthogonalEdgeStyle;rounded=0;orthogonalLoop=1;jettySize=auto;html=1;endArrow=none;endFill=0;" edge="1" parent="1" source="LTQi-4VdJKLaQ-HWII3O-4" target="LTQi-4VdJKLaQ-HWII3O-2">
          <mxGeometry relative="1" as="geometry" />
        </mxCell>
        <mxCell id="LTQi-4VdJKLaQ-HWII3O-13" value="" style="edgeStyle=orthogonalEdgeStyle;rounded=0;orthogonalLoop=1;jettySize=auto;html=1;endArrow=none;endFill=0;" edge="1" parent="1" source="LTQi-4VdJKLaQ-HWII3O-4" target="LTQi-4VdJKLaQ-HWII3O-6">
          <mxGeometry relative="1" as="geometry" />
        </mxCell>
        <mxCell id="LTQi-4VdJKLaQ-HWII3O-4" value="consult" style="shape=rhombus;perimeter=rhombusPerimeter;whiteSpace=wrap;html=1;align=center;" vertex="1" parent="1">
          <mxGeometry x="280" y="50" width="120" height="60" as="geometry" />
        </mxCell>
        <mxCell id="LTQi-4VdJKLaQ-HWII3O-5" value="Products" style="swimlane;childLayout=stackLayout;horizontal=1;startSize=50;horizontalStack=0;rounded=1;fontSize=14;fontStyle=0;strokeWidth=2;resizeParent=0;resizeLast=1;shadow=0;dashed=0;align=center;arcSize=4;whiteSpace=wrap;html=1;" vertex="1" parent="1">
          <mxGeometry x="490" y="20" width="160" height="180" as="geometry" />
        </mxCell>
        <mxCell id="LTQi-4VdJKLaQ-HWII3O-6" value="cod_product&lt;br&gt;name&lt;br&gt;slug_name&lt;br&gt;quantity&lt;br&gt;price&lt;br&gt;created_at&lt;br&gt;updated_at" style="align=left;strokeColor=none;fillColor=none;spacingLeft=4;fontSize=12;verticalAlign=top;resizable=0;rotatable=0;part=1;html=1;" vertex="1" parent="LTQi-4VdJKLaQ-HWII3O-5">
          <mxGeometry y="50" width="160" height="130" as="geometry" />
        </mxCell>
        <mxCell id="LTQi-4VdJKLaQ-HWII3O-7" value="Unity" style="swimlane;childLayout=stackLayout;horizontal=1;startSize=50;horizontalStack=0;rounded=1;fontSize=14;fontStyle=0;strokeWidth=2;resizeParent=0;resizeLast=1;shadow=0;dashed=0;align=center;arcSize=4;whiteSpace=wrap;html=1;" vertex="1" parent="1">
          <mxGeometry x="490" y="360" width="160" height="120" as="geometry" />
        </mxCell>
        <mxCell id="LTQi-4VdJKLaQ-HWII3O-8" value="id&lt;br&gt;name&lt;br&gt;adress" style="align=left;strokeColor=none;fillColor=none;spacingLeft=4;fontSize=12;verticalAlign=top;resizable=0;rotatable=0;part=1;html=1;" vertex="1" parent="LTQi-4VdJKLaQ-HWII3O-7">
          <mxGeometry y="50" width="160" height="70" as="geometry" />
        </mxCell>
        <mxCell id="LTQi-4VdJKLaQ-HWII3O-10" value="" style="edgeStyle=orthogonalEdgeStyle;rounded=0;orthogonalLoop=1;jettySize=auto;html=1;endArrow=none;endFill=0;" edge="1" parent="1" source="LTQi-4VdJKLaQ-HWII3O-9" target="LTQi-4VdJKLaQ-HWII3O-6">
          <mxGeometry relative="1" as="geometry" />
        </mxCell>
        <mxCell id="LTQi-4VdJKLaQ-HWII3O-11" value="" style="edgeStyle=orthogonalEdgeStyle;rounded=0;orthogonalLoop=1;jettySize=auto;html=1;endArrow=none;endFill=0;" edge="1" parent="1" source="LTQi-4VdJKLaQ-HWII3O-9">
          <mxGeometry relative="1" as="geometry">
            <mxPoint x="570" y="360" as="targetPoint" />
          </mxGeometry>
        </mxCell>
        <mxCell id="LTQi-4VdJKLaQ-HWII3O-9" value="where is" style="shape=rhombus;perimeter=rhombusPerimeter;whiteSpace=wrap;html=1;align=center;" vertex="1" parent="1">
          <mxGeometry x="510" y="250" width="120" height="60" as="geometry" />
        </mxCell>
        <mxCell id="LTQi-4VdJKLaQ-HWII3O-14" value="Adresses" style="swimlane;childLayout=stackLayout;horizontal=1;startSize=50;horizontalStack=0;rounded=1;fontSize=14;fontStyle=0;strokeWidth=2;resizeParent=0;resizeLast=1;shadow=0;dashed=0;align=center;arcSize=4;whiteSpace=wrap;html=1;" vertex="1" parent="1">
          <mxGeometry x="30" y="350" width="160" height="150" as="geometry" />
        </mxCell>
        <mxCell id="LTQi-4VdJKLaQ-HWII3O-15" value="state&lt;br&gt;city&lt;br&gt;neighborhood&lt;br&gt;street&lt;br&gt;number&lt;br&gt;complement" style="align=left;strokeColor=none;fillColor=none;spacingLeft=4;fontSize=12;verticalAlign=top;resizable=0;rotatable=0;part=1;html=1;" vertex="1" parent="LTQi-4VdJKLaQ-HWII3O-14">
          <mxGeometry y="50" width="160" height="100" as="geometry" />
        </mxCell>
        <mxCell id="LTQi-4VdJKLaQ-HWII3O-17" value="" style="edgeStyle=orthogonalEdgeStyle;rounded=0;orthogonalLoop=1;jettySize=auto;html=1;endArrow=none;endFill=0;" edge="1" parent="1" source="LTQi-4VdJKLaQ-HWII3O-16" target="LTQi-4VdJKLaQ-HWII3O-8">
          <mxGeometry relative="1" as="geometry" />
        </mxCell>
        <mxCell id="LTQi-4VdJKLaQ-HWII3O-18" value="" style="edgeStyle=orthogonalEdgeStyle;rounded=0;orthogonalLoop=1;jettySize=auto;html=1;endArrow=none;endFill=0;" edge="1" parent="1" source="LTQi-4VdJKLaQ-HWII3O-16" target="LTQi-4VdJKLaQ-HWII3O-15">
          <mxGeometry relative="1" as="geometry" />
        </mxCell>
        <mxCell id="LTQi-4VdJKLaQ-HWII3O-16" value="has" style="shape=rhombus;perimeter=rhombusPerimeter;whiteSpace=wrap;html=1;align=center;" vertex="1" parent="1">
          <mxGeometry x="280" y="390" width="120" height="60" as="geometry" />
        </mxCell>
      </root>
    </mxGraphModel>
  </diagram>
  <diagram id="rPBIo_8z0WMbX8dcH44s" name="modelagem_logica">
    <mxGraphModel dx="1024" dy="569" grid="1" gridSize="10" guides="1" tooltips="1" connect="1" arrows="1" fold="1" page="1" pageScale="1" pageWidth="827" pageHeight="1169" math="0" shadow="0">
      <root>
        <mxCell id="0" />
        <mxCell id="1" parent="0" />
        <mxCell id="K-sEbOtx2R6KVN6R0SbO-1" value="Employees" style="swimlane;childLayout=stackLayout;horizontal=1;startSize=50;horizontalStack=0;rounded=1;fontSize=14;fontStyle=0;strokeWidth=2;resizeParent=0;resizeLast=1;shadow=0;dashed=0;align=center;arcSize=4;whiteSpace=wrap;html=1;" vertex="1" parent="1">
          <mxGeometry x="90" y="20" width="160" height="120" as="geometry" />
        </mxCell>
        <mxCell id="K-sEbOtx2R6KVN6R0SbO-2" value="cod_employee (PK)&lt;br&gt;full_name&lt;br&gt;hire_date&lt;br&gt;office" style="align=left;strokeColor=none;fillColor=none;spacingLeft=4;fontSize=12;verticalAlign=top;resizable=0;rotatable=0;part=1;html=1;" vertex="1" parent="K-sEbOtx2R6KVN6R0SbO-1">
          <mxGeometry y="50" width="160" height="70" as="geometry" />
        </mxCell>
        <mxCell id="K-sEbOtx2R6KVN6R0SbO-6" value="Products" style="swimlane;childLayout=stackLayout;horizontal=1;startSize=50;horizontalStack=0;rounded=1;fontSize=14;fontStyle=0;strokeWidth=2;resizeParent=0;resizeLast=1;shadow=0;dashed=0;align=center;arcSize=4;whiteSpace=wrap;html=1;" vertex="1" parent="1">
          <mxGeometry x="630.83" y="20" width="160" height="180" as="geometry" />
        </mxCell>
        <mxCell id="K-sEbOtx2R6KVN6R0SbO-7" value="cod_product (PK)&lt;br&gt;name&lt;br&gt;slug_name&lt;br&gt;quantity&lt;br&gt;price&lt;br&gt;created_at&lt;br&gt;updated_at&lt;br&gt;unity_id (FK)" style="align=left;strokeColor=none;fillColor=none;spacingLeft=4;fontSize=12;verticalAlign=top;resizable=0;rotatable=0;part=1;html=1;" vertex="1" parent="K-sEbOtx2R6KVN6R0SbO-6">
          <mxGeometry y="50" width="160" height="130" as="geometry" />
        </mxCell>
        <mxCell id="K-sEbOtx2R6KVN6R0SbO-8" value="Units" style="swimlane;childLayout=stackLayout;horizontal=1;startSize=50;horizontalStack=0;rounded=1;fontSize=14;fontStyle=0;strokeWidth=2;resizeParent=0;resizeLast=1;shadow=0;dashed=0;align=center;arcSize=4;whiteSpace=wrap;html=1;" vertex="1" parent="1">
          <mxGeometry x="630.83" y="230" width="160" height="120" as="geometry" />
        </mxCell>
        <mxCell id="K-sEbOtx2R6KVN6R0SbO-9" value="id (PK)&lt;br&gt;name&lt;br&gt;adress_id (FK)" style="align=left;strokeColor=none;fillColor=none;spacingLeft=4;fontSize=12;verticalAlign=top;resizable=0;rotatable=0;part=1;html=1;" vertex="1" parent="K-sEbOtx2R6KVN6R0SbO-8">
          <mxGeometry y="50" width="160" height="70" as="geometry" />
        </mxCell>
        <mxCell id="K-sEbOtx2R6KVN6R0SbO-13" value="Adresses" style="swimlane;childLayout=stackLayout;horizontal=1;startSize=50;horizontalStack=0;rounded=1;fontSize=14;fontStyle=0;strokeWidth=2;resizeParent=0;resizeLast=1;shadow=0;dashed=0;align=center;arcSize=4;whiteSpace=wrap;html=1;" vertex="1" parent="1">
          <mxGeometry x="360" y="240" width="160" height="170" as="geometry" />
        </mxCell>
        <mxCell id="K-sEbOtx2R6KVN6R0SbO-14" value="id (PK)&lt;br&gt;state&lt;br&gt;city&lt;br&gt;neighborhood&lt;br&gt;street&lt;br&gt;number&lt;br&gt;complement" style="align=left;strokeColor=none;fillColor=none;spacingLeft=4;fontSize=12;verticalAlign=top;resizable=0;rotatable=0;part=1;html=1;" vertex="1" parent="K-sEbOtx2R6KVN6R0SbO-13">
          <mxGeometry y="50" width="160" height="120" as="geometry" />
        </mxCell>
        <mxCell id="TSI-oZ-EBgBxmKwFu6M6-1" style="edgeStyle=orthogonalEdgeStyle;rounded=0;orthogonalLoop=1;jettySize=auto;html=1;exitX=1.003;exitY=0.375;exitDx=0;exitDy=0;entryX=0;entryY=0.25;entryDx=0;entryDy=0;exitPerimeter=0;endArrow=none;endFill=0;" edge="1" parent="1" source="K-sEbOtx2R6KVN6R0SbO-23" target="K-sEbOtx2R6KVN6R0SbO-6">
          <mxGeometry relative="1" as="geometry">
            <Array as="points" />
          </mxGeometry>
        </mxCell>
        <mxCell id="TSI-oZ-EBgBxmKwFu6M6-2" value="n" style="edgeLabel;html=1;align=center;verticalAlign=middle;resizable=0;points=[];" vertex="1" connectable="0" parent="TSI-oZ-EBgBxmKwFu6M6-1">
          <mxGeometry x="-0.8565" y="1" relative="1" as="geometry">
            <mxPoint as="offset" />
          </mxGeometry>
        </mxCell>
        <mxCell id="TSI-oZ-EBgBxmKwFu6M6-3" value="1" style="edgeLabel;html=1;align=center;verticalAlign=middle;resizable=0;points=[];" vertex="1" connectable="0" parent="TSI-oZ-EBgBxmKwFu6M6-1">
          <mxGeometry x="0.8041" y="-1" relative="1" as="geometry">
            <mxPoint as="offset" />
          </mxGeometry>
        </mxCell>
        <mxCell id="K-sEbOtx2R6KVN6R0SbO-23" value="Products_Units" style="swimlane;childLayout=stackLayout;horizontal=1;startSize=50;horizontalStack=0;rounded=1;fontSize=14;fontStyle=0;strokeWidth=2;resizeParent=0;resizeLast=1;shadow=0;dashed=0;align=center;arcSize=4;whiteSpace=wrap;html=1;" vertex="1" parent="1">
          <mxGeometry x="360" y="20" width="160" height="120" as="geometry" />
        </mxCell>
        <mxCell id="K-sEbOtx2R6KVN6R0SbO-24" value="id (PK)&lt;br&gt;cod_products (FK)&lt;br&gt;adress_id (FK)" style="align=left;strokeColor=none;fillColor=none;spacingLeft=4;fontSize=12;verticalAlign=top;resizable=0;rotatable=0;part=1;html=1;" vertex="1" parent="K-sEbOtx2R6KVN6R0SbO-23">
          <mxGeometry y="50" width="160" height="70" as="geometry" />
        </mxCell>
        <mxCell id="K-sEbOtx2R6KVN6R0SbO-25" style="edgeStyle=orthogonalEdgeStyle;rounded=0;orthogonalLoop=1;jettySize=auto;html=1;exitX=1;exitY=0.5;exitDx=0;exitDy=0;entryX=0;entryY=0.5;entryDx=0;entryDy=0;endArrow=none;endFill=0;" edge="1" parent="1" source="K-sEbOtx2R6KVN6R0SbO-24" target="K-sEbOtx2R6KVN6R0SbO-8">
          <mxGeometry relative="1" as="geometry">
            <Array as="points">
              <mxPoint x="550" y="105" />
              <mxPoint x="550" y="290" />
            </Array>
          </mxGeometry>
        </mxCell>
        <mxCell id="K-sEbOtx2R6KVN6R0SbO-33" value="n" style="edgeLabel;html=1;align=center;verticalAlign=middle;resizable=0;points=[];" vertex="1" connectable="0" parent="K-sEbOtx2R6KVN6R0SbO-25">
          <mxGeometry x="-0.8376" y="-1" relative="1" as="geometry">
            <mxPoint x="-14" as="offset" />
          </mxGeometry>
        </mxCell>
        <mxCell id="K-sEbOtx2R6KVN6R0SbO-34" value="1" style="edgeLabel;html=1;align=center;verticalAlign=middle;resizable=0;points=[];" vertex="1" connectable="0" parent="K-sEbOtx2R6KVN6R0SbO-25">
          <mxGeometry x="0.8893" y="1" relative="1" as="geometry">
            <mxPoint as="offset" />
          </mxGeometry>
        </mxCell>
        <mxCell id="K-sEbOtx2R6KVN6R0SbO-27" style="edgeStyle=orthogonalEdgeStyle;rounded=0;orthogonalLoop=1;jettySize=auto;html=1;exitX=1;exitY=0.5;exitDx=0;exitDy=0;entryX=0;entryY=0.25;entryDx=0;entryDy=0;endArrow=none;endFill=0;" edge="1" parent="1" source="K-sEbOtx2R6KVN6R0SbO-2" target="K-sEbOtx2R6KVN6R0SbO-24">
          <mxGeometry relative="1" as="geometry">
            <Array as="points">
              <mxPoint x="250" y="88" />
              <mxPoint x="305" y="88" />
            </Array>
          </mxGeometry>
        </mxCell>
        <mxCell id="K-sEbOtx2R6KVN6R0SbO-29" value="1" style="edgeLabel;html=1;align=center;verticalAlign=middle;resizable=0;points=[];" vertex="1" connectable="0" parent="K-sEbOtx2R6KVN6R0SbO-27">
          <mxGeometry x="-0.9291" relative="1" as="geometry">
            <mxPoint x="10" y="-11" as="offset" />
          </mxGeometry>
        </mxCell>
        <mxCell id="K-sEbOtx2R6KVN6R0SbO-30" value="n" style="edgeLabel;html=1;align=center;verticalAlign=middle;resizable=0;points=[];" vertex="1" connectable="0" parent="K-sEbOtx2R6KVN6R0SbO-27">
          <mxGeometry x="0.9338" relative="1" as="geometry">
            <mxPoint x="-5" as="offset" />
          </mxGeometry>
        </mxCell>
        <mxCell id="K-sEbOtx2R6KVN6R0SbO-28" style="edgeStyle=orthogonalEdgeStyle;rounded=0;orthogonalLoop=1;jettySize=auto;html=1;exitX=1;exitY=0.25;exitDx=0;exitDy=0;endArrow=none;endFill=0;entryX=-0.008;entryY=0.575;entryDx=0;entryDy=0;entryPerimeter=0;" edge="1" parent="1" source="K-sEbOtx2R6KVN6R0SbO-14" target="K-sEbOtx2R6KVN6R0SbO-9">
          <mxGeometry relative="1" as="geometry">
            <mxPoint x="630" y="442" as="targetPoint" />
          </mxGeometry>
        </mxCell>
        <mxCell id="K-sEbOtx2R6KVN6R0SbO-35" value="1" style="edgeLabel;html=1;align=center;verticalAlign=middle;resizable=0;points=[];" vertex="1" connectable="0" parent="K-sEbOtx2R6KVN6R0SbO-28">
          <mxGeometry x="0.9411" y="2" relative="1" as="geometry">
            <mxPoint x="-6" y="2" as="offset" />
          </mxGeometry>
        </mxCell>
        <mxCell id="K-sEbOtx2R6KVN6R0SbO-36" value="1" style="edgeLabel;html=1;align=center;verticalAlign=middle;resizable=0;points=[];" vertex="1" connectable="0" parent="K-sEbOtx2R6KVN6R0SbO-28">
          <mxGeometry x="-0.93" y="-2" relative="1" as="geometry">
            <mxPoint x="6" y="-2" as="offset" />
          </mxGeometry>
        </mxCell>
      </root>
    </mxGraphModel>
  </diagram>
</mxfile>
